<svg width="204" height="90" viewBox="0 0 280 100" fill="none" xmlns="http://www.w3.org/2000/svg">
<path d="M0 81.7689V34.5574L14.5611 25.1904V75.3411L3.74992 81.8788H0V81.7689Z" fill="#000000"/>
<path d="M14.9707 8.39333L42.4018 25.4496L56.0596 16.3836L28.1138 0L14.9707 8.39333Z" fill="#000000"/>
<path d="M29.9551 33.2432L56.068 50.0429L41.9217 58.9178L30.0181 51.0427L29.9551 33.2432Z" fill="#000000"/>
<path d="M56.0601 16.3838L29.9551 33.2437L42.9275 41.5481L56.0653 33.686L56.0601 16.3838Z" fill="url(#paint0_linear_432_101)"/>
<path d="M0 34.5576V17.8076L14.9708 8.39355L27.9931 16.5147L0 34.5576Z" fill="url(#paint1_linear_432_101)"/>
<path d="M56.0669 50.0439L3.76758 81.8795L17.9243 90.0006L56.0485 66.8411L56.0669 50.0439Z" fill="url(#paint2_linear_432_101)"/>
<path d="M65.1406 67.5942V15.499H88.2888V21.8143H74.476V37.63H86.7316V43.9427H74.476V61.2842H88.2888V67.5968H65.1406V67.5942Z" fill="#000000"/>
<path d="M122.912 55.4033V58.7429C122.912 64.6447 119.183 67.5942 111.728 67.5942H105.696C98.2406 67.5942 94.5117 64.6447 94.5117 58.7429V24.353C94.5117 18.4512 98.2406 15.499 105.696 15.499H111.728C119.183 15.499 122.912 18.4512 122.912 24.353V30.2286H113.576V24.8607C113.576 22.8298 112.179 21.8143 109.393 21.8143H107.545C105.079 21.8143 103.847 22.8298 103.847 24.8607V58.2351C103.847 60.2661 105.079 61.2816 107.545 61.2816H109.879C112.345 61.2816 113.576 60.2661 113.576 58.2351V55.4033H122.912Z" fill="#000000"/>
<path d="M141.003 67.5947C133.479 67.5947 129.719 64.3729 129.719 57.9268V46.3509C129.719 39.855 133.448 36.6045 140.903 36.6045H149.85C157.305 36.6045 161.036 39.855 161.036 46.3509V57.9268C161.036 64.3729 157.273 67.5947 149.752 67.5947H141.003ZM143.24 60.701H148.006C150.472 60.701 151.704 59.5913 151.704 57.3745V46.8325C151.704 44.6131 150.312 43.506 147.52 43.506H143.148C140.422 43.506 139.059 44.6157 139.059 46.8325V57.3745C139.057 59.5913 140.449 60.701 143.24 60.701Z" fill="#000000"/>
<path d="M188.665 54.5739V37.1748H198V67.5944H188.665L178.644 51.7787V67.5944H169.309V37.1748H178.644L188.665 54.5739Z" fill="#000000"/>
<g filter="url(#filter0_f_432_101)">
<path d="M135.759 31V28.585L141.969 22.72C142.46 22.2753 142.82 21.8767 143.05 21.524C143.28 21.1713 143.433 20.8493 143.51 20.558C143.602 20.2667 143.648 19.9983 143.648 19.753C143.648 19.109 143.426 18.6183 142.981 18.281C142.552 17.9283 141.915 17.752 141.072 17.752C140.397 17.752 139.769 17.8823 139.186 18.143C138.619 18.4037 138.136 18.81 137.737 19.362L135.023 17.614C135.636 16.694 136.495 15.9657 137.599 15.429C138.703 14.8923 139.976 14.624 141.417 14.624C142.613 14.624 143.656 14.8233 144.545 15.222C145.45 15.6053 146.147 16.1497 146.638 16.855C147.144 17.5603 147.397 18.4037 147.397 19.385C147.397 19.9063 147.328 20.4277 147.19 20.949C147.067 21.455 146.807 21.9917 146.408 22.559C146.025 23.1263 145.457 23.7627 144.706 24.468L139.554 29.321L138.841 27.964H147.926V31H135.759ZM158.893 31.276C157.575 31.276 156.394 30.954 155.351 30.31C154.309 29.6507 153.488 28.7 152.89 27.458C152.292 26.216 151.993 24.7133 151.993 22.95C151.993 21.1867 152.292 19.684 152.89 18.442C153.488 17.2 154.309 16.257 155.351 15.613C156.394 14.9537 157.575 14.624 158.893 14.624C160.227 14.624 161.408 14.9537 162.435 15.613C163.478 16.257 164.298 17.2 164.896 18.442C165.494 19.684 165.793 21.1867 165.793 22.95C165.793 24.7133 165.494 26.216 164.896 27.458C164.298 28.7 163.478 29.6507 162.435 30.31C161.408 30.954 160.227 31.276 158.893 31.276ZM158.893 28.125C159.522 28.125 160.066 27.9487 160.526 27.596C161.002 27.2433 161.37 26.6837 161.63 25.917C161.906 25.1503 162.044 24.1613 162.044 22.95C162.044 21.7387 161.906 20.7497 161.63 19.983C161.37 19.2163 161.002 18.6567 160.526 18.304C160.066 17.9513 159.522 17.775 158.893 17.775C158.28 17.775 157.736 17.9513 157.26 18.304C156.8 18.6567 156.432 19.2163 156.156 19.983C155.896 20.7497 155.765 21.7387 155.765 22.95C155.765 24.1613 155.896 25.1503 156.156 25.917C156.432 26.6837 156.8 27.2433 157.26 27.596C157.736 27.9487 158.28 28.125 158.893 28.125ZM169.906 31V28.585L176.116 22.72C176.607 22.2753 176.967 21.8767 177.197 21.524C177.427 21.1713 177.58 20.8493 177.657 20.558C177.749 20.2667 177.795 19.9983 177.795 19.753C177.795 19.109 177.573 18.6183 177.128 18.281C176.699 17.9283 176.062 17.752 175.219 17.752C174.544 17.752 173.916 17.8823 173.333 18.143C172.766 18.4037 172.283 18.81 171.884 19.362L169.17 17.614C169.783 16.694 170.642 15.9657 171.746 15.429C172.85 14.8923 174.123 14.624 175.564 14.624C176.76 14.624 177.803 14.8233 178.692 15.222C179.597 15.6053 180.294 16.1497 180.785 16.855C181.291 17.5603 181.544 18.4037 181.544 19.385C181.544 19.9063 181.475 20.4277 181.337 20.949C181.214 21.455 180.954 21.9917 180.555 22.559C180.172 23.1263 179.604 23.7627 178.853 24.468L173.701 29.321L172.988 27.964H182.073V31H169.906ZM191.614 31.276C190.495 31.276 189.383 31.1303 188.279 30.839C187.191 30.5323 186.255 30.103 185.473 29.551L186.945 26.699C187.559 27.1437 188.264 27.4963 189.061 27.757C189.874 28.0177 190.694 28.148 191.522 28.148C192.458 28.148 193.194 27.964 193.73 27.596C194.267 27.228 194.535 26.7143 194.535 26.055C194.535 25.641 194.428 25.273 194.213 24.951C193.999 24.629 193.615 24.3837 193.063 24.215C192.527 24.0463 191.768 23.962 190.786 23.962H186.669L187.497 14.9H197.318V17.89H188.831L190.763 16.188L190.188 22.651L188.256 20.949H191.66C193.255 20.949 194.535 21.1713 195.501 21.616C196.483 22.0453 197.196 22.6357 197.64 23.387C198.085 24.1383 198.307 24.9893 198.307 25.94C198.307 26.8907 198.07 27.7723 197.594 28.585C197.119 29.3823 196.383 30.034 195.386 30.54C194.405 31.0307 193.148 31.276 191.614 31.276Z" fill="#03C988"/>
</g>
<g filter="url(#filter1_d_432_101)">
<path d="M135.759 31V28.585L141.969 22.72C142.46 22.2754 142.82 21.8767 143.05 21.524C143.28 21.1714 143.434 20.8494 143.51 20.558C143.602 20.2667 143.648 19.9984 143.648 19.753C143.648 19.109 143.426 18.6184 142.981 18.281C142.552 17.9284 141.916 17.752 141.072 17.752C140.398 17.752 139.769 17.8824 139.186 18.143C138.619 18.4037 138.136 18.81 137.737 19.362L135.023 17.614C135.637 16.694 136.495 15.9657 137.599 15.429C138.703 14.8924 139.976 14.624 141.417 14.624C142.613 14.624 143.656 14.8234 144.545 15.222C145.45 15.6054 146.148 16.1497 146.638 16.855C147.144 17.5604 147.397 18.4037 147.397 19.385C147.397 19.9064 147.328 20.4277 147.19 20.949C147.068 21.455 146.807 21.9917 146.408 22.559C146.025 23.1264 145.458 23.7627 144.706 24.468L139.554 29.321L138.841 27.964H147.926V31H135.759Z" fill="url(#paint3_linear_432_101)"/>
<path d="M158.894 31.276C157.575 31.276 156.395 30.954 155.352 30.31C154.309 29.6507 153.489 28.7 152.891 27.458C152.293 26.216 151.994 24.7134 151.994 22.95C151.994 21.1867 152.293 19.684 152.891 18.442C153.489 17.2 154.309 16.257 155.352 15.613C156.395 14.9537 157.575 14.624 158.894 14.624C160.228 14.624 161.409 14.9537 162.436 15.613C163.479 16.257 164.299 17.2 164.897 18.442C165.495 19.684 165.794 21.1867 165.794 22.95C165.794 24.7134 165.495 26.216 164.897 27.458C164.299 28.7 163.479 29.6507 162.436 30.31C161.409 30.954 160.228 31.276 158.894 31.276ZM158.894 28.125C159.523 28.125 160.067 27.9487 160.527 27.596C161.002 27.2434 161.37 26.6837 161.631 25.917C161.907 25.1504 162.045 24.1614 162.045 22.95C162.045 21.7387 161.907 20.7497 161.631 19.983C161.37 19.2164 161.002 18.6567 160.527 18.304C160.067 17.9514 159.523 17.775 158.894 17.775C158.281 17.775 157.736 17.9514 157.261 18.304C156.801 18.6567 156.433 19.2164 156.157 19.983C155.896 20.7497 155.766 21.7387 155.766 22.95C155.766 24.1614 155.896 25.1504 156.157 25.917C156.433 26.6837 156.801 27.2434 157.261 27.596C157.736 27.9487 158.281 28.125 158.894 28.125Z" fill="url(#paint4_linear_432_101)"/>
<path d="M169.906 31V28.585L176.116 22.72C176.607 22.2754 176.967 21.8767 177.197 21.524C177.427 21.1714 177.581 20.8494 177.657 20.558C177.749 20.2667 177.795 19.9984 177.795 19.753C177.795 19.109 177.573 18.6184 177.128 18.281C176.699 17.9284 176.063 17.752 175.219 17.752C174.545 17.752 173.916 17.8824 173.333 18.143C172.766 18.4037 172.283 18.81 171.884 19.362L169.17 17.614C169.784 16.694 170.642 15.9657 171.746 15.429C172.85 14.8924 174.123 14.624 175.564 14.624C176.76 14.624 177.803 14.8234 178.692 15.222C179.597 15.6054 180.295 16.1497 180.785 16.855C181.291 17.5604 181.544 18.4037 181.544 19.385C181.544 19.9064 181.475 20.4277 181.337 20.949C181.215 21.455 180.954 21.9917 180.555 22.559C180.172 23.1264 179.605 23.7627 178.853 24.468L173.701 29.321L172.988 27.964H182.073V31H169.906Z" fill="url(#paint5_linear_432_101)"/>
<path d="M191.615 31.276C190.495 31.276 189.384 31.1304 188.28 30.839C187.191 30.5324 186.256 30.103 185.474 29.551L186.946 26.699C187.559 27.1437 188.264 27.4964 189.062 27.757C189.874 28.0177 190.695 28.148 191.523 28.148C192.458 28.148 193.194 27.964 193.731 27.596C194.267 27.228 194.536 26.7144 194.536 26.055C194.536 25.641 194.428 25.273 194.214 24.951C193.999 24.629 193.616 24.3837 193.064 24.215C192.527 24.0464 191.768 23.962 190.787 23.962H186.67L187.498 14.9H197.319V17.89H188.832L190.764 16.188L190.189 22.651L188.257 20.949H191.661C193.255 20.949 194.536 21.1714 195.502 21.616C196.483 22.0454 197.196 22.6357 197.641 23.387C198.085 24.1384 198.308 24.9894 198.308 25.94C198.308 26.8907 198.07 27.7724 197.595 28.585C197.119 29.3824 196.383 30.034 195.387 30.54C194.405 31.0307 193.148 31.276 191.615 31.276Z" fill="url(#paint6_linear_432_101)"/>
</g>
<defs>
<filter id="filter0_f_432_101" x="130.023" y="9.62402" width="73.2852" height="26.6523" filterUnits="userSpaceOnUse" color-interpolation-filters="sRGB">
<feFlood flood-opacity="0" result="BackgroundImageFix"/>
<feBlend mode="normal" in="SourceGraphic" in2="BackgroundImageFix" result="shape"/>
<feGaussianBlur stdDeviation="2.5" result="effect1_foregroundBlur_432_101"/>
</filter>
<filter id="filter1_d_432_101" x="135.023" y="14.624" width="63.2852" height="16.6523" filterUnits="userSpaceOnUse" color-interpolation-filters="sRGB">
<feFlood flood-opacity="0" result="BackgroundImageFix"/>
<feColorMatrix in="SourceAlpha" type="matrix" values="0 0 0 0 0 0 0 0 0 0 0 0 0 0 0 0 0 0 127 0" result="hardAlpha"/>
<feOffset/>
<feComposite in2="hardAlpha" operator="out"/>
<feColorMatrix type="matrix" values="0 0 0 0 1 0 0 0 0 1 0 0 0 0 1 0 0 0 0.25 0"/>
<feBlend mode="normal" in2="BackgroundImageFix" result="effect1_dropShadow_432_101"/>
<feBlend mode="normal" in="SourceGraphic" in2="effect1_dropShadow_432_101" result="shape"/>
</filter>
<linearGradient id="paint0_linear_432_101" x1="33.1395" y1="38.6078" x2="59.8427" y2="22.7562" gradientUnits="userSpaceOnUse">
<stop stop-color="#00337C"/>
<stop offset="0.645" stop-color="#03C988"/>
</linearGradient>
<linearGradient id="paint1_linear_432_101" x1="7.04168" y1="21.7486" x2="23.5524" y2="11.5477" gradientUnits="userSpaceOnUse">
<stop stop-color="#03C988"/>
<stop offset="1" stop-color="#00337C"/>
</linearGradient>
<linearGradient id="paint2_linear_432_101" x1="7.16892" y1="87.6103" x2="59.8151" y2="56.3583" gradientUnits="userSpaceOnUse">
<stop offset="0.235" stop-color="#03C988"/>
<stop offset="0.9583" stop-color="#00337C"/>
</linearGradient>
<linearGradient id="paint3_linear_432_101" x1="167" y1="15" x2="167" y2="31" gradientUnits="userSpaceOnUse">
<stop stop-color="#0eab76"/>
<stop offset="1" stop-color="#03C988"/>
</linearGradient>
<linearGradient id="paint4_linear_432_101" x1="167" y1="15" x2="167" y2="31" gradientUnits="userSpaceOnUse">
<stop stop-color="#0eab76"/>
<stop offset="1" stop-color="#03C988"/>
</linearGradient>
<linearGradient id="paint5_linear_432_101" x1="167" y1="15" x2="167" y2="31" gradientUnits="userSpaceOnUse">
<stop stop-color="#0eab76"/>
<stop offset="1" stop-color="#03C988"/>
</linearGradient>
<linearGradient id="paint6_linear_432_101" x1="167" y1="15" x2="167" y2="31" gradientUnits="userSpaceOnUse">
<stop stop-color="#0eab76"/>
<stop offset="1" stop-color="#03C988"/>
</linearGradient>
</defs>
</svg>
